<svg width="56" height="56" viewBox="0 0 56 56" fill="none" xmlns="http://www.w3.org/2000/svg">
<g clip-path="url(#clip0_251_332)">
<rect width="56" height="56" rx="28" fill="#1C1C22"/>
<path d="M23.8867 36.8477C23.8867 37.5273 23.7578 38.1836 23.5 38.8164C23.2656 39.4727 23.125 40.1406 23.0781 40.8203C22.6094 41.2422 22.0703 41.5352 21.4609 41.6992C20.8516 41.8633 20.2422 41.9453 19.6328 41.9453C18.9766 41.9453 18.3203 41.875 17.6641 41.7344C17.3359 41.4531 17.0195 41.1133 16.7148 40.7148C16.4336 40.3164 16.1758 39.8828 15.9414 39.4141C15.7305 38.9688 15.5547 38.5117 15.4141 38.043C15.2734 37.5508 15.1914 37.082 15.168 36.6367C15.2148 36.6367 15.2617 36.625 15.3086 36.6016C15.3555 36.5781 15.3789 36.543 15.3789 36.4961C15.3789 36.3789 15.3555 36.3086 15.3086 36.2852C15.2617 36.2617 15.2383 36.1562 15.2383 35.9688C15.2383 35.3828 15.3906 34.8789 15.6953 34.457C16.0234 34.0352 16.4219 33.6953 16.8906 33.4375C17.3594 33.1797 17.8633 32.9922 18.4023 32.875C18.9414 32.7344 19.4453 32.6641 19.9141 32.6641C20.4062 32.6641 20.8867 32.793 21.3555 33.0508C21.8242 33.3086 22.2461 33.6484 22.6211 34.0703C22.9961 34.4688 23.3008 34.9141 23.5352 35.4062C23.7695 35.8984 23.8867 36.3789 23.8867 36.8477ZM23.8867 20.9922C23.8867 21.6719 23.7578 22.3398 23.5 22.9961C23.2656 23.6289 23.125 24.2852 23.0781 24.9648C22.6094 25.4102 22.0703 25.7148 21.4609 25.8789C20.8516 26.043 20.2422 26.125 19.6328 26.125C18.9766 26.125 18.3203 26.0547 17.6641 25.9141C17.3359 25.6328 17.0195 25.293 16.7148 24.8945C16.4336 24.4727 16.1758 24.0391 15.9414 23.5938C15.7305 23.125 15.5547 22.6562 15.4141 22.1875C15.2734 21.6953 15.1914 21.2266 15.168 20.7812C15.2148 20.7812 15.2617 20.7695 15.3086 20.7461C15.3555 20.7227 15.3789 20.6875 15.3789 20.6406C15.3789 20.5234 15.3555 20.4648 15.3086 20.4648C15.2617 20.4414 15.2383 20.3359 15.2383 20.1484C15.2383 19.5625 15.3906 19.0586 15.6953 18.6367C16.0234 18.2148 16.4219 17.875 16.8906 17.6172C17.3594 17.3359 17.8633 17.1367 18.4023 17.0195C18.9414 16.9023 19.4453 16.8438 19.9141 16.8438C20.4062 16.8438 20.8867 16.9727 21.3555 17.2305C21.8242 17.4883 22.2461 17.8164 22.6211 18.2148C22.9961 18.6133 23.3008 19.0586 23.5352 19.5508C23.7695 20.043 23.8867 20.5234 23.8867 20.9922ZM40.832 36.8477C40.832 37.5273 40.7031 38.1836 40.4453 38.8164C40.2109 39.4727 40.0703 40.1406 40.0234 40.8203C39.5547 41.2422 39.0156 41.5352 38.4062 41.6992C37.7969 41.8633 37.1875 41.9453 36.5781 41.9453C35.9219 41.9453 35.2656 41.875 34.6094 41.7344C34.2812 41.4531 33.9648 41.1133 33.6602 40.7148C33.3789 40.3164 33.1211 39.8828 32.8867 39.4141C32.6758 38.9688 32.5 38.5117 32.3594 38.043C32.2188 37.5508 32.1367 37.082 32.1133 36.6367C32.1602 36.6367 32.207 36.625 32.2539 36.6016C32.3008 36.5781 32.3242 36.543 32.3242 36.4961C32.3242 36.3789 32.3008 36.3086 32.2539 36.2852C32.207 36.2617 32.1836 36.1562 32.1836 35.9688C32.1836 35.3828 32.3359 34.8789 32.6406 34.457C32.9688 34.0352 33.3672 33.6953 33.8359 33.4375C34.3047 33.1797 34.8086 32.9922 35.3477 32.875C35.8867 32.7344 36.3906 32.6641 36.8594 32.6641C37.3516 32.6641 37.832 32.793 38.3008 33.0508C38.7695 33.3086 39.1914 33.6484 39.5664 34.0703C39.9414 34.4688 40.2461 34.9141 40.4805 35.4062C40.7148 35.8984 40.832 36.3789 40.832 36.8477ZM40.832 20.9922C40.832 21.6719 40.7031 22.3398 40.4453 22.9961C40.2109 23.6289 40.0703 24.2852 40.0234 24.9648C39.5547 25.4102 39.0156 25.7148 38.4062 25.8789C37.7969 26.043 37.1875 26.125 36.5781 26.125C35.9219 26.125 35.2656 26.0547 34.6094 25.9141C34.2812 25.6328 33.9648 25.293 33.6602 24.8945C33.3789 24.4727 33.1211 24.0391 32.8867 23.5938C32.6758 23.125 32.5 22.6562 32.3594 22.1875C32.2188 21.6953 32.1367 21.2266 32.1133 20.7812C32.1602 20.7812 32.207 20.7695 32.2539 20.7461C32.3008 20.7227 32.3242 20.6875 32.3242 20.6406C32.3242 20.5234 32.3008 20.4648 32.2539 20.4648C32.207 20.4414 32.1836 20.3359 32.1836 20.1484C32.1836 19.5625 32.3359 19.0586 32.6406 18.6367C32.9688 18.2148 33.3672 17.875 33.8359 17.6172C34.3047 17.3359 34.8086 17.1367 35.3477 17.0195C35.8867 16.9023 36.3906 16.8438 36.8594 16.8438C37.3516 16.8438 37.832 16.9727 38.3008 17.2305C38.7695 17.4883 39.1914 17.8164 39.5664 18.2148C39.9414 18.6133 40.2461 19.0586 40.4805 19.5508C40.7148 20.043 40.832 20.5234 40.832 20.9922Z" fill="#00E187"/>
</g>
<defs>
<clipPath id="clip0_251_332">
<rect width="56" height="56" rx="28" fill="white"/>
</clipPath>
</defs>
</svg>
